<svg width="107" height="107" viewBox="0 0 107 107" fill="none" xmlns="http://www.w3.org/2000/svg">
<path d="M95.111 11.8889H11.8888C10.3122 11.8889 8.80022 12.5152 7.68542 13.63C6.57062 14.7448 5.94434 16.2568 5.94434 17.8334V89.1667C5.94434 90.7433 6.57062 92.2552 7.68542 93.37C8.80022 94.4848 10.3122 95.1111 11.8888 95.1111H95.111C96.6876 95.1111 98.1996 94.4848 99.3144 93.37C100.429 92.2552 101.055 90.7433 101.055 89.1667V17.8334C101.055 16.2568 100.429 14.7448 99.3144 13.63C98.1996 12.5152 96.6876 11.8889 95.111 11.8889ZM11.8888 89.1667V17.8334H95.111V89.1667H11.8888Z" fill="white" fill-opacity="0.75"/>
<path d="M26.5124 41.6112C28.2759 41.6112 29.9999 41.0882 31.4662 40.1084C32.9325 39.1287 34.0754 37.7361 34.7503 36.1068C35.4252 34.4775 35.6018 32.6846 35.2577 30.9549C34.9137 29.2253 34.0644 27.6365 32.8174 26.3895C31.5704 25.1424 29.9816 24.2932 28.2519 23.9492C26.5223 23.6051 24.7294 23.7817 23.1001 24.4566C21.4708 25.1315 20.0782 26.2743 19.0984 27.7407C18.1187 29.207 17.5957 30.931 17.5957 32.6945C17.5957 35.0594 18.5351 37.3273 20.2073 38.9995C21.8795 40.6717 24.1475 41.6112 26.5124 41.6112ZM26.5124 27.9389C27.4542 27.9331 28.3765 28.207 29.1625 28.7259C29.9484 29.2449 30.5626 29.9855 30.9271 30.8539C31.2916 31.7224 31.39 32.6795 31.2099 33.6039C31.0297 34.5283 30.5792 35.3785 29.9153 36.0465C29.2514 36.7146 28.4041 37.1705 27.4808 37.3564C26.5576 37.5423 25.5998 37.4499 24.7292 37.0908C23.8585 36.7318 23.114 36.1223 22.5901 35.3396C22.0662 34.5569 21.7866 33.6363 21.7865 32.6945C21.7943 31.4435 22.2947 30.246 23.1793 29.3614C24.0639 28.4769 25.2614 27.9765 26.5124 27.9687V27.9389Z" fill="white" fill-opacity="0.75"/>
<path d="M67.7074 45.683L51.6574 61.733L39.7685 49.8441C39.2116 49.2906 38.4583 48.9798 37.6731 48.9798C36.8878 48.9798 36.1345 49.2906 35.5776 49.8441L17.5957 68.0639V76.4752L37.7771 56.2939L47.5557 65.9239L36.4099 77.0697H44.5835L69.6988 51.9544L89.1668 71.3333V62.9516L71.8982 45.683C71.3413 45.1294 70.588 44.8187 69.8028 44.8187C69.0176 44.8187 68.2643 45.1294 67.7074 45.683Z" fill="white" fill-opacity="0.75"/>
</svg>
